<svg width="158" height="158" viewBox="0 0 158 158" fill="none" xmlns="http://www.w3.org/2000/svg">
<path d="M79.0002 157.999C72.8306 157.999 67.0037 155.265 62.1497 150.093C59.1073 146.851 56.5684 142.794 54.5607 137.975C49.3713 140.098 44.3233 141.201 39.6753 141.201C30.9522 141.201 23.7257 137.317 19.848 130.547C15.7058 123.313 15.8294 113.713 20.0256 103.439C15.2054 101.431 11.1477 98.8922 7.90552 95.8499C2.73346 90.9958 0 85.1684 0 78.9988C0 72.8292 2.73395 67.0022 7.90552 62.1482C11.1472 59.1054 15.2049 56.5669 20.0256 54.5588C15.8284 44.2837 15.7044 34.6842 19.8466 27.451C23.7238 20.6805 30.9513 16.7975 39.6753 16.7975C44.3233 16.7975 49.3713 17.8993 54.5607 20.0232C56.5684 15.2044 59.1073 11.1467 62.1497 7.90553C67.0042 2.73347 72.8306 0 79.0002 0C85.1698 0 90.9968 2.73347 95.8513 7.90553C98.8932 11.1467 101.433 15.2044 103.44 20.0232C108.63 17.8998 113.678 16.7975 118.326 16.7975C127.049 16.7975 134.275 20.6805 138.153 27.4515C142.295 34.6852 142.172 44.2846 137.975 54.5588C142.795 56.5669 146.853 59.1059 150.094 62.1482C155.267 67.0027 158 72.8297 158 78.9988C158 85.1684 155.266 90.9958 150.094 95.8499C146.853 98.8927 142.795 101.431 137.975 103.439C142.173 113.716 142.297 123.315 138.153 130.549C134.277 137.318 127.05 141.201 118.329 141.201H118.325C113.676 141.2 108.629 140.098 103.44 137.975C101.433 142.794 98.8936 146.852 95.8513 150.093C90.9973 155.265 85.1703 157.999 79.0002 157.999Z" fill="#FBEFEA"/>
<path d="M128.48 58.6181C144.41 31.4726 126.804 13.8668 99.6584 29.7961C91.7269 -0.662489 66.8289 -0.662489 58.8978 29.7961C31.7523 13.8668 14.1464 31.4726 30.0752 58.6181C-0.383315 66.5497 -0.383315 91.4477 30.0752 99.3788C14.1459 126.524 31.7518 144.13 58.8978 128.201C66.8289 158.66 91.7273 158.66 99.6584 128.201C126.804 144.131 144.41 126.525 128.48 99.3788C158.939 91.4477 158.939 66.5492 128.48 58.6181Z" fill="#ECACAD"/>
</svg>
